<svg width="64" height="56" viewBox="0 0 64 56" xmlns="http://www.w3.org/2000/svg">
<path d="M58 28H48V20C48 15.5875 51.5875 12 56 12H57C58.6625 12 60 10.6625 60 9V3C60 1.3375 58.6625 0 
57 0H56C44.95 0 36 8.95 36 20V50C36 53.3125 38.6875 56 42 56H58C61.3125 56 64 53.3125 64 50V34C64 30.6875 
61.3125 28 58 28ZM22 28H12V20C12 15.5875 15.5875 12 20 12H21C22.6625 12 24 10.6625 24 9V3C24 1.3375 22.6625 
0 21 0H20C8.95 0 0 8.95 0 20V50C0 53.3125 2.6875 56 6 56H22C25.3125 56 28 53.3125 28 50V34C28 30.6875 25.3125 
28 22 28Z"/>
</svg>
